<svg width="138" height="41" viewBox="0 0 138 41" fill="none" xmlns="http://www.w3.org/2000/svg">
<path d="M5.58434 11.1492C7.23415 10.415 9.26925 10.1601 11.2045 10.3523C13.2646 10.5569 15.3641 11.2847 16.8392 12.6667L17.6332 13.4206C18.3449 14.1088 18.8307 14.6222 19.2543 15.1433C19.6535 15.6345 19.9887 16.1287 20.4037 16.7546C20.9154 16.0615 21.6138 15.1755 22.4213 14.3132C23.5664 13.0902 25.0537 11.7796 26.6273 11.2468L27.0755 11.1013C28.1123 10.7802 29.078 10.5934 30.0677 10.5857C31.2044 10.5768 32.3107 10.8047 33.5365 11.2566L34.1 11.4783C35.3816 12.0184 36.4349 12.7149 37.306 13.6277C38.2973 14.6664 39.0029 15.9337 39.5629 17.4421L39.7338 17.9255C40.1085 19.0435 40.3094 20.0859 40.3089 21.1531C40.3084 22.2197 40.1068 23.2615 39.7338 24.3786L39.5629 24.863C39.1242 26.0502 38.615 27.0011 37.9291 27.8464C37.7731 28.0386 37.609 28.2224 37.4379 28.4011L38.6937 39.1189C38.762 39.7027 38.3449 40.231 37.7611 40.2995C37.1771 40.368 36.6479 39.95 36.5795 39.3659L35.4857 30.0378L35.4183 30.0867C33.8469 31.1898 32.5703 32.0662 31.3168 32.9255L30.89 39.4363L29.8275 39.3659L28.765 39.2966L29.0824 34.4607C28.996 34.5203 28.9092 34.5807 28.8216 34.6413L26.4261 36.3171C24.7192 37.523 22.5496 39.5562 21.5648 40.5056C20.9057 41.1408 19.8796 41.1611 19.1966 40.5827L19.0648 40.4587C18.2968 39.6614 16.7509 38.1032 15.2132 36.8181L14.557 36.2868C13.7141 35.6289 13.0141 35.1177 12.3695 34.6726L12.6761 39.3288C12.7145 39.9153 12.2704 40.4219 11.6839 40.4607C11.0974 40.499 10.5898 40.055 10.5511 39.4685L10.141 33.2331C9.62949 32.9189 9.08476 32.5884 8.46129 32.2029L7.38317 31.529C6.40247 30.9083 5.4934 30.3734 4.65856 29.779L3.54332 39.2956C3.47468 39.8795 2.94559 40.2967 2.36168 40.2283C1.77793 40.1596 1.36074 39.6314 1.42906 39.0476L2.7152 28.0613C2.30516 27.5939 1.92081 27.0644 1.56578 26.4411L1.42418 26.1853C0.717103 24.8654 0.254997 23.6176 0.079455 22.3015C-0.0964508 20.9824 0.0237941 19.6566 0.399768 18.1902L0.536486 17.6902C1.26086 15.1851 2.64861 12.6079 5.25914 11.3025L5.58434 11.1492ZM30.89 39.4363C30.8513 40.0229 30.3438 40.4669 29.7572 40.4284C29.1707 40.3896 28.7266 39.8831 28.765 39.2966L30.89 39.4363ZM10.9935 12.4714C9.34937 12.3082 7.7018 12.5394 6.45543 13.0925L6.21227 13.2077C4.36619 14.1308 3.23108 16.0405 2.58531 18.2693L2.46324 18.7195C2.13866 19.9856 2.05784 21.0306 2.18981 22.0202C2.32221 23.0127 2.67618 24.0128 3.30113 25.1794L3.52477 25.573C4.65609 27.4574 6.06384 28.1736 8.52184 29.7292L9.57067 30.3855C11.8718 31.8073 13.2498 32.5656 15.8666 34.6081L16.5687 35.1755C18.0486 36.4115 19.5061 37.8623 20.347 38.7253C21.4287 37.6927 23.4902 35.784 25.1976 34.5779L27.5765 32.9138C29.8102 31.3668 31.7107 30.0883 34.1947 28.3445L34.5277 28.1052C35.2761 27.5556 35.8288 27.0554 36.2757 26.5046C36.7822 25.8805 37.1878 25.1478 37.5658 24.1247L37.7132 23.7058C38.0328 22.7491 38.1787 21.9379 38.1791 21.1521C38.1794 20.3666 38.0343 19.5561 37.7142 18.6013L37.5668 18.1824C37.074 16.855 36.5 15.8665 35.766 15.0974C35.1274 14.4283 34.3289 13.8851 33.2699 13.4392L32.8002 13.2546C31.7544 12.8691 30.9062 12.7082 30.0843 12.7146C29.3604 12.7202 28.6085 12.8561 27.7064 13.1355L27.3099 13.2634C26.2616 13.6184 25.0762 14.5942 23.9759 15.7693C23.1721 16.6277 22.4782 17.521 21.9945 18.1863L21.5843 18.7654C21.0468 19.5467 19.9044 19.6154 19.2875 18.9001L19.1713 18.7468C18.4421 17.6438 18.0764 17.0698 17.6019 16.4861C17.2509 16.0542 16.8336 15.6094 16.1556 14.9538L15.3832 14.2204C14.3528 13.2552 12.7511 12.6459 10.9935 12.4714Z" fill="#FF2B6E"/>
<path d="M33.9387 0.950195C36.063 0.950195 37.7746 2.65945 37.7747 4.75391C37.7747 6.84844 36.0631 8.55762 33.9387 8.55762C31.8144 8.55759 30.1028 6.84842 30.1028 4.75391C30.1029 2.65947 31.8145 0.950224 33.9387 0.950195Z" stroke="#FF2B6E" stroke-width="1.90134"/>
<path d="M6.44231 0.950195C8.5666 0.950195 10.2782 2.65945 10.2782 4.75391C10.2782 6.84844 8.56665 8.55762 6.44231 8.55762C4.31799 8.55759 2.60637 6.84842 2.60637 4.75391C2.60646 2.65947 4.31804 0.950224 6.44231 0.950195Z" stroke="#FF2B6E" stroke-width="1.90134"/>
<g filter="url(#filter0_d_302_2265)">
<path d="M126.793 21.2036H118.819L117.773 24.2117C117.549 24.8549 116.943 25.2861 116.261 25.2861H115.29C114.18 25.2861 113.408 24.1835 113.786 23.1402L119.788 6.60831C120.017 5.97561 120.618 5.55432 121.292 5.55432H124.462C125.132 5.55432 125.73 5.97125 125.963 6.59924L132.077 23.1311C132.464 24.176 131.691 25.2861 130.577 25.2861H129.529C128.878 25.2861 128.292 24.8918 128.047 24.2889L126.793 21.2036ZM125.711 17.7336L123.675 11.4331C123.439 10.7027 122.41 10.6917 122.158 11.4169L119.968 17.7336H125.711Z" fill="#FF2B6E"/>
<path d="M102.042 25.8268C100.547 25.8268 99.1956 25.5795 97.9874 25.0849C96.7998 24.5903 95.8578 23.8781 95.1616 22.9482C94.7781 22.4361 94.4972 21.8729 94.3187 21.2587C94.0693 20.4005 94.8188 19.6542 95.7126 19.6542H97.2053C98.0442 19.6542 98.68 20.3497 99.1133 21.068C99.2488 21.2925 99.4161 21.4939 99.6154 21.6721C100.189 22.1667 100.967 22.414 101.95 22.414C102.953 22.414 103.742 22.1865 104.315 21.7315C104.888 21.2567 105.175 20.6434 105.175 19.8916C105.175 19.2783 104.98 18.7738 104.591 18.3781C104.202 17.9824 103.711 17.6758 103.117 17.4581C102.544 17.2207 101.745 16.9635 100.721 16.6866C99.3287 16.2909 98.1922 15.9051 97.3117 15.5292C96.4517 15.1335 95.7042 14.5499 95.0695 13.7783C94.4551 12.9869 94.148 11.9384 94.148 10.6326C94.148 9.40603 94.4654 8.33769 95.1002 7.42762C95.735 6.51756 96.6257 5.82512 97.7724 5.3503C98.9192 4.8557 100.23 4.6084 101.704 4.6084C103.916 4.6084 105.707 5.13268 107.079 6.18123C108.017 6.87395 108.671 7.75504 109.043 8.82449C109.348 9.70502 108.587 10.5139 107.655 10.5139H106.163C105.315 10.5139 104.658 9.77788 104.102 9.13767C103.986 9.00438 103.853 8.8795 103.701 8.76305C103.127 8.28823 102.359 8.05082 101.397 8.05082C100.557 8.05082 99.8816 8.25856 99.3696 8.67402C98.8782 9.08949 98.6325 9.6929 98.6325 10.4843C98.6325 11.0382 98.8168 11.5031 99.1854 11.879C99.5744 12.2351 100.045 12.5319 100.598 12.7693C101.172 12.9869 101.97 13.2441 102.994 13.5409C104.387 13.9366 105.523 14.3323 106.404 14.7279C107.284 15.1236 108.042 15.7171 108.676 16.5085C109.311 17.2999 109.629 18.3385 109.629 19.6245C109.629 20.7324 109.332 21.7612 108.738 22.7108C108.144 23.6604 107.274 24.4221 106.127 24.9959C104.98 25.5498 103.619 25.8268 102.042 25.8268Z" fill="#FF2B6E"/>
<path d="M89.5654 5.461C89.9288 5.47272 90.1477 5.86837 89.9646 6.18243L83.5384 17.2078C83.4984 17.2765 83.476 17.3541 83.4734 17.4336L83.2111 25.3628C83.2025 25.6215 82.9903 25.8269 82.7314 25.8269H79.9239C79.6656 25.8269 79.4536 25.6224 79.4442 25.3643L79.1573 17.4416C79.1543 17.3571 79.1289 17.2748 79.0837 17.2032L72.2342 6.33192C72.0364 6.01788 72.2546 5.60772 72.6256 5.5963L75.8968 5.49565C76.0712 5.49028 76.2347 5.57995 76.324 5.72984L81.012 13.6032C81.2038 13.9254 81.6745 13.9131 81.8491 13.5812L86.0405 5.61767C86.1261 5.45505 86.297 5.35557 86.4807 5.36149L89.5654 5.461Z" fill="#FF2B6E"/>
<path d="M65.4568 5.41943C66.3404 5.41943 67.0567 6.13574 67.0567 7.01936V23.8216C67.0567 24.7052 66.3404 25.4215 65.4568 25.4215H64.9023C64.0187 25.4215 63.3024 24.7052 63.3024 23.8216V11.899L58.4698 20.7169C58.189 21.2293 57.6511 21.5479 57.0668 21.5479H57.0179C56.4242 21.5479 55.8793 21.2191 55.6025 20.6938L50.7082 11.406L50.3473 23.8679C50.3223 24.7331 49.6137 25.4215 48.7481 25.4215H48.2492C47.3656 25.4215 46.6492 24.7052 46.6492 23.8216V7.01936C46.6492 6.13574 47.3656 5.41943 48.2492 5.41943H50.1783C50.7564 5.41943 51.2895 5.73124 51.5729 6.23507L56.4176 14.8492C56.7276 15.4005 57.5247 15.3909 57.8213 14.8322L62.3686 6.269C62.6462 5.74623 63.1897 5.41943 63.7816 5.41943H65.4568Z" fill="#FF2B6E"/>
</g>
<path d="M53.3381 30.7664V36.3915H52.2099V32.7327L50.7029 36.3915H49.8486L48.3336 32.7327V36.3915H47.2053V30.7664H48.4867L50.2757 34.9489L52.0648 30.7664H53.3381ZM59.0874 30.7664L57.1855 34.4332V36.3915H56.0573V34.4332L54.1473 30.7664H55.4206L56.6295 33.3372L57.8303 30.7664H59.0874ZM61.8415 36.4479C61.4493 36.4479 61.0947 36.3807 60.7777 36.2464C60.4661 36.1121 60.219 35.9187 60.0363 35.6662C59.8536 35.4137 59.7596 35.1155 59.7542 34.7716H60.9631C60.9792 35.0027 61.0598 35.1853 61.2048 35.3196C61.3553 35.454 61.5594 35.5211 61.8173 35.5211C62.0806 35.5211 62.2874 35.4593 62.4379 35.3358C62.5883 35.2068 62.6635 35.0403 62.6635 34.8361C62.6635 34.6696 62.6125 34.5326 62.5104 34.4251C62.4083 34.3177 62.2794 34.2344 62.1236 34.1753C61.9731 34.1108 61.7636 34.041 61.495 33.9658C61.1296 33.8583 60.8314 33.7535 60.6004 33.6515C60.3748 33.544 60.1787 33.3855 60.0121 33.176C59.851 32.9611 59.7704 32.6763 59.7704 32.3217C59.7704 31.9886 59.8536 31.6985 60.0202 31.4514C60.1867 31.2042 60.4204 31.0162 60.7213 30.8873C61.0222 30.7529 61.366 30.6858 61.7528 30.6858C62.3331 30.6858 62.8032 30.8282 63.1632 31.1129C63.5285 31.3923 63.73 31.7845 63.7676 32.2895H62.5265C62.5158 32.0961 62.4325 31.9376 62.2767 31.814C62.1262 31.6851 61.9248 31.6206 61.6723 31.6206C61.452 31.6206 61.2747 31.677 61.1404 31.7899C61.0114 31.9027 60.947 32.0665 60.947 32.2814C60.947 32.4319 60.9953 32.5581 61.092 32.6602C61.1941 32.7569 61.3177 32.8375 61.4627 32.902C61.6132 32.9611 61.8227 33.0309 62.0913 33.1115C62.4567 33.219 62.7548 33.3264 62.9859 33.4339C63.2169 33.5413 63.4157 33.7025 63.5822 33.9174C63.7488 34.1323 63.832 34.4144 63.832 34.7636C63.832 35.0645 63.7541 35.3438 63.5983 35.6017C63.4425 35.8596 63.2142 36.0664 62.9133 36.2222C62.6125 36.3727 62.2552 36.4479 61.8415 36.4479ZM68.4206 35.3196H66.1802L65.8095 36.3915H64.6248L66.6476 30.7583H67.9612L69.984 36.3915H68.7913L68.4206 35.3196ZM68.1143 34.4171L67.3004 32.0639L66.4864 34.4171H68.1143ZM77.0847 32.5071C77.0847 32.808 77.0122 33.09 76.8671 33.3533C76.7274 33.6165 76.5044 33.8288 76.1982 33.9899C75.8973 34.1511 75.5159 34.2317 75.0538 34.2317H74.111V36.3915H72.9827V30.7664H75.0538C75.489 30.7664 75.8597 30.8416 76.166 30.992C76.4722 31.1425 76.7005 31.3493 76.851 31.6126C77.0068 31.8758 77.0847 32.174 77.0847 32.5071ZM75.0055 33.321C75.3171 33.321 75.5481 33.2512 75.6986 33.1115C75.849 32.9665 75.9242 32.765 75.9242 32.5071C75.9242 31.9591 75.618 31.6851 75.0055 31.6851H74.111V33.321H75.0055ZM78.6191 31.395C78.4203 31.395 78.2537 31.3332 78.1194 31.2096C77.9905 31.0807 77.926 30.9222 77.926 30.7341C77.926 30.5461 77.9905 30.3903 78.1194 30.2667C78.2537 30.1378 78.4203 30.0733 78.6191 30.0733C78.8179 30.0733 78.9817 30.1378 79.1107 30.2667C79.245 30.3903 79.3121 30.5461 79.3121 30.7341C79.3121 30.9222 79.245 31.0807 79.1107 31.2096C78.9817 31.3332 78.8179 31.395 78.6191 31.395ZM79.1751 31.9269V36.3915H78.0469V31.9269H79.1751ZM80.1609 34.1592C80.1609 33.6971 80.2549 33.2942 80.443 32.9503C80.631 32.6011 80.8916 32.3325 81.2247 32.1444C81.5578 31.951 81.9392 31.8543 82.369 31.8543C82.9224 31.8543 83.3791 31.994 83.739 32.2734C84.1044 32.5474 84.3488 32.9342 84.4724 33.4339H83.2555C83.191 33.2405 83.0809 33.09 82.9251 32.9826C82.7747 32.8697 82.5866 32.8133 82.361 32.8133C82.0386 32.8133 81.7834 32.9315 81.5954 33.1679C81.4073 33.3989 81.3133 33.7294 81.3133 34.1592C81.3133 34.5836 81.4073 34.914 81.5954 35.1504C81.7834 35.3814 82.0386 35.4969 82.361 35.4969C82.8176 35.4969 83.1158 35.2928 83.2555 34.8845H84.4724C84.3488 35.368 84.1044 35.7521 83.739 36.0369C83.3737 36.3216 82.917 36.464 82.369 36.464C81.9392 36.464 81.5578 36.37 81.2247 36.1819C80.8916 35.9885 80.631 35.7199 80.443 35.3761C80.2549 35.0268 80.1609 34.6212 80.1609 34.1592ZM88.1034 36.3915L86.5884 34.4896V36.3915H85.4601V30.4279H86.5884V33.8207L88.0873 31.9269H89.554L87.5877 34.1672L89.5702 36.3915H88.1034ZM92.036 36.464C91.6707 36.464 91.343 36.3995 91.0529 36.2706C90.7627 36.1363 90.5317 35.9563 90.3598 35.7307C90.1932 35.505 90.1019 35.2552 90.0858 34.9812H91.2221C91.2436 35.1531 91.3269 35.2955 91.4719 35.4083C91.6224 35.5211 91.8077 35.5775 92.028 35.5775C92.2429 35.5775 92.4094 35.5346 92.5276 35.4486C92.6512 35.3626 92.713 35.2525 92.713 35.1182C92.713 34.9731 92.6378 34.8657 92.4873 34.7958C92.3423 34.7206 92.1086 34.64 91.7862 34.5541C91.4531 34.4735 91.1791 34.3902 90.9642 34.3042C90.7547 34.2183 90.572 34.0866 90.4162 33.9093C90.2658 33.732 90.1906 33.493 90.1906 33.1921C90.1906 32.945 90.2604 32.7193 90.4001 32.5152C90.5452 32.311 90.7493 32.1498 91.0126 32.0316C91.2812 31.9134 91.5955 31.8543 91.9555 31.8543C92.4873 31.8543 92.9118 31.9886 93.2288 32.2573C93.5457 32.5205 93.7204 32.8778 93.7526 33.3291H92.6727C92.6566 33.1518 92.5814 33.0121 92.447 32.91C92.3181 32.8026 92.1435 32.7489 91.9232 32.7489C91.7191 32.7489 91.5606 32.7865 91.4477 32.8617C91.3403 32.9369 91.2866 33.0417 91.2866 33.176C91.2866 33.3264 91.3618 33.4419 91.5122 33.5225C91.6627 33.5977 91.8964 33.6756 92.2133 33.7562C92.5357 33.8368 92.8016 33.9201 93.0112 34.0061C93.2207 34.092 93.4007 34.2263 93.5511 34.409C93.7069 34.5863 93.7875 34.8227 93.7929 35.1182C93.7929 35.3761 93.7204 35.6071 93.5753 35.8112C93.4356 36.0154 93.2314 36.1766 92.9628 36.2948C92.6996 36.4076 92.3906 36.464 92.036 36.464ZM95.3799 36.4479C95.1757 36.4479 95.0065 36.3861 94.8721 36.2625C94.7432 36.1336 94.6787 35.9751 94.6787 35.7871C94.6787 35.599 94.7432 35.4432 94.8721 35.3196C95.0065 35.1907 95.1757 35.1262 95.3799 35.1262C95.5786 35.1262 95.7425 35.1907 95.8714 35.3196C96.0004 35.4432 96.0649 35.599 96.0649 35.7871C96.0649 35.9751 96.0004 36.1336 95.8714 36.2625C95.7425 36.3861 95.5786 36.4479 95.3799 36.4479ZM103.689 30.7664L101.787 34.4332V36.3915H100.659V34.4332L98.7488 30.7664H100.022L101.231 33.3372L102.432 30.7664H103.689ZM106.483 36.464C106.053 36.464 105.667 36.37 105.323 36.1819C104.979 35.9885 104.708 35.7172 104.509 35.368C104.315 35.0188 104.219 34.6158 104.219 34.1592C104.219 33.7025 104.318 33.2996 104.517 32.9503C104.721 32.6011 104.998 32.3325 105.347 32.1444C105.696 31.951 106.086 31.8543 106.516 31.8543C106.945 31.8543 107.335 31.951 107.684 32.1444C108.033 32.3325 108.307 32.6011 108.506 32.9503C108.71 33.2996 108.812 33.7025 108.812 34.1592C108.812 34.6158 108.708 35.0188 108.498 35.368C108.294 35.7172 108.014 35.9885 107.66 36.1819C107.311 36.37 106.918 36.464 106.483 36.464ZM106.483 35.4808C106.687 35.4808 106.878 35.4325 107.055 35.3358C107.238 35.2337 107.383 35.0833 107.491 34.8845C107.598 34.6857 107.652 34.4439 107.652 34.1592C107.652 33.7347 107.539 33.4097 107.313 33.184C107.093 32.953 106.822 32.8375 106.499 32.8375C106.177 32.8375 105.906 32.953 105.685 33.184C105.471 33.4097 105.363 33.7347 105.363 34.1592C105.363 34.5836 105.468 34.9113 105.677 35.1424C105.892 35.368 106.161 35.4808 106.483 35.4808ZM114.016 31.9269V36.3915H112.88V35.8274C112.735 36.0208 112.544 36.1739 112.307 36.2867C112.076 36.3942 111.824 36.4479 111.55 36.4479C111.201 36.4479 110.892 36.3754 110.623 36.2303C110.354 36.0799 110.142 35.8623 109.986 35.5775C109.836 35.2874 109.761 34.9436 109.761 34.546V31.9269H110.889V34.3848C110.889 34.7394 110.978 35.0134 111.155 35.2068C111.332 35.3949 111.574 35.4889 111.88 35.4889C112.192 35.4889 112.436 35.3949 112.614 35.2068C112.791 35.0134 112.88 34.7394 112.88 34.3848V31.9269H114.016ZM121.474 32.5071C121.474 32.808 121.401 33.09 121.256 33.3533C121.116 33.6165 120.893 33.8288 120.587 33.9899C120.286 34.1511 119.905 34.2317 119.443 34.2317H118.5V36.3915H117.372V30.7664H119.443C119.878 30.7664 120.249 30.8416 120.555 30.992C120.861 31.1425 121.09 31.3493 121.24 31.6126C121.396 31.8758 121.474 32.174 121.474 32.5071ZM119.395 33.321C119.706 33.321 119.937 33.2512 120.088 33.1115C120.238 32.9665 120.313 32.765 120.313 32.5071C120.313 31.9591 120.007 31.6851 119.395 31.6851H118.5V33.321H119.395ZM123.564 30.4279V36.3915H122.436V30.4279H123.564ZM124.55 34.1431C124.55 33.6918 124.639 33.2915 124.816 32.9423C124.999 32.5931 125.243 32.3244 125.549 32.1364C125.861 31.9483 126.207 31.8543 126.589 31.8543C126.922 31.8543 127.212 31.9215 127.459 32.0558C127.712 32.1901 127.913 32.3594 128.064 32.5635V31.9269H129.2V36.3915H128.064V35.7387C127.919 35.9482 127.717 36.1229 127.459 36.2625C127.207 36.3969 126.914 36.464 126.581 36.464C126.205 36.464 125.861 36.3673 125.549 36.1739C125.243 35.9805 124.999 35.7092 124.816 35.3599C124.639 35.0054 124.55 34.5997 124.55 34.1431ZM128.064 34.1592C128.064 33.8852 128.01 33.6515 127.902 33.458C127.795 33.2593 127.65 33.1088 127.467 33.0067C127.285 32.8993 127.088 32.8456 126.879 32.8456C126.669 32.8456 126.476 32.8966 126.299 32.9987C126.121 33.1008 125.976 33.2512 125.864 33.45C125.756 33.6434 125.702 33.8744 125.702 34.1431C125.702 34.4117 125.756 34.6481 125.864 34.8522C125.976 35.051 126.121 35.2041 126.299 35.3116C126.481 35.419 126.675 35.4728 126.879 35.4728C127.088 35.4728 127.285 35.4217 127.467 35.3196C127.65 35.2122 127.795 35.0618 127.902 34.8684C128.01 34.6696 128.064 34.4332 128.064 34.1592ZM134.734 31.9269L131.97 38.5029H130.769L131.736 36.2787L129.947 31.9269H131.212L132.365 35.0456L133.533 31.9269H134.734ZM136.003 36.4479C135.799 36.4479 135.63 36.3861 135.496 36.2625C135.367 36.1336 135.302 35.9751 135.302 35.7871C135.302 35.599 135.367 35.4432 135.496 35.3196C135.63 35.1907 135.799 35.1262 136.003 35.1262C136.202 35.1262 136.366 35.1907 136.495 35.3196C136.624 35.4432 136.688 35.599 136.688 35.7871C136.688 35.9751 136.624 36.1336 136.495 36.2625C136.366 36.3861 136.202 36.4479 136.003 36.4479Z" fill="#FF2B6E"/>
<defs>
<filter id="filter0_d_302_2265" x="44.9586" y="4.6084" width="88.9101" height="24.5999" filterUnits="userSpaceOnUse" color-interpolation-filters="sRGB">
<feFlood flood-opacity="0" result="BackgroundImageFix"/>
<feColorMatrix in="SourceAlpha" type="matrix" values="0 0 0 0 0 0 0 0 0 0 0 0 0 0 0 0 0 0 127 0" result="hardAlpha"/>
<feOffset dy="1.69069"/>
<feGaussianBlur stdDeviation="0.845344"/>
<feComposite in2="hardAlpha" operator="out"/>
<feColorMatrix type="matrix" values="0 0 0 0 0 0 0 0 0 0 0 0 0 0 0 0 0 0 0.25 0"/>
<feBlend mode="normal" in2="BackgroundImageFix" result="effect1_dropShadow_302_2265"/>
<feBlend mode="normal" in="SourceGraphic" in2="effect1_dropShadow_302_2265" result="shape"/>
</filter>
</defs>
</svg>
